<svg id="Capa_1" enable-background="new 0 0 503.552 503.552" height="512" viewBox="0 0 503.552 503.552" width="512" xmlns="http://www.w3.org/2000/svg"><g><path d="m447.745 274.958-41.637-44.638c-.463-.497-.809-1.054-1.025-1.656l-15.766-43.778c-3.016-8.375-9.111-15.258-17.161-19.38l-64.411-32.993v-94.748c0-8.709-5.143-16.619-13.102-20.153-7.958-3.535-17.276-2.044-23.737 3.797l-25.493 23.05c-1.472-7.339-3.14-15.023-5.035-23.071-2.44-10.362-10.148-18.282-20.118-20.671-9.649-2.312-19.706 1.065-26.249 8.81-3.929 4.651-8.167 9.552-12.655 14.74-20.496 23.698-43.889 50.745-59.986 78.923-14.313 4.705-29.825 15.749-46.992 33.407-15.958 16.415-27.423 32.645-27.903 33.327l-2.73 3.883v329.746h212.68v-15c0-27.986 38.698-59.938 57.766-72.83l43.355 1.642c24.58.929 47.673-11.196 60.271-31.649l35.351-57.392c10.55-17.131 8.371-38.577-5.423-53.366zm-170.001-219.289v61.477l-8.088-4.143-2.607-.331c-.805-.103-5.373-.681-12.413-1.534-.604-9.363-1.638-19.89-3.255-31.632zm149.88 256.92-35.351 57.392c-6.934 11.257-19.804 17.933-33.593 17.404l-52.749-1.997-3.917 2.457c-.752.472-18.638 11.757-36.671 28.986-20.25 19.347-32.673 38.362-37.092 56.721h-154.507v-290.08c4.068-5.399 12.325-15.897 22.399-26.227 2.441-2.503 4.76-4.76 6.973-6.82-.891 5.16-1.372 10.318-1.372 15.459h30c0-20.088 11.439-42.89 26.715-65.12.167 17.896 3.019 38.766 11.027 61.505l28.296-9.967c-8.531-24.224-11.24-48.658-8.05-72.627 1.747-13.126 4.886-22.525 6.485-26.713 2.667-3.105 5.287-6.135 7.828-9.073 2.927-3.385 5.75-6.648 8.468-9.821 6.268 27.774 14.89 74.437 12.396 112.179l29.935 1.979c.14-2.117.256-4.384.342-6.796 2.272.278 4.128.507 5.483.676l97.811 50.102c1.255.643 2.182 1.651 2.61 2.842l15.766 43.777c1.601 4.447 4.062 8.47 7.313 11.956l41.637 44.638c4.465 4.785 5.195 11.685 1.818 17.168z"/><path d="m346.101 262.195-19.143-19.143 18.893-18.894-21.213-21.213-40.107 40.107 40.357 40.356z"/><path d="m359.472 302.54-107.969-5.469-1.517 29.961 60.991 3.09-105.4 22.768 6.334 29.324 152.766-33-6.131-28.384z"/></g></svg>