<?xml version="1.0" encoding="utf-8"?>
<!-- Generator: Adobe Illustrator 24.3.0, SVG Export Plug-In . SVG Version: 6.00 Build 0)  -->
<svg version="1.1" id="Слой_1" xmlns="http://www.w3.org/2000/svg" xmlns:xlink="http://www.w3.org/1999/xlink" x="0px" y="0px"
	 viewBox="0 0 1000 1000" style="enable-background:new 0 0 1000 1000;" xml:space="preserve">
<style type="text/css">
	.st0{fill:#FFFFFF;}
	.st1{fill:none;stroke:#FFFFFF;stroke-width:20;stroke-miterlimit:10;}
	.st2{enable-background:new    ;}
</style>
<path class="st0" d="M500.5,21c64.7,0,127.5,12.7,186.6,37.7c57.1,24.2,108.4,58.7,152.4,102.8s78.6,95.3,102.8,152.4
	c25,59.1,37.7,121.9,37.7,186.6S967.3,628,942.3,687.1c-24.2,57.1-58.7,108.4-102.8,152.4s-95.3,78.6-152.4,102.8
	C628,967.3,565.2,980,500.5,980S373,967.3,313.9,942.3c-57.1-24.2-108.4-58.7-152.4-102.8S82.8,744.2,58.7,687.1
	C33.7,628,21,565.2,21,500.5S33.7,373,58.7,313.9c24.2-57.1,58.7-108.4,102.8-152.4s95.3-78.6,152.4-102.8
	C373,33.7,435.8,21,500.5,21 M500.5,1C224.6,1,1,224.6,1,500.5S224.6,1000,500.5,1000S1000,776.4,1000,500.5S776.4,1,500.5,1
	L500.5,1z"/>
<line class="st1" x1="200" y1="200.5" x2="800" y2="800.5"/>
<line class="st1" x1="200" y1="800.1" x2="800" y2="200.1"/>
<g class="st2">
	<path class="st0" d="M266.3,504h-89.8v78.3h103.2V596H160.3V404h118.8v13.7H176.5v72.5h89.8V504z"/>
</g>
<g class="st2">
	<path class="st0" d="M832.5,548.8c0-10.6-3.7-19.1-11.2-25.2c-7.5-6.2-21.1-12.1-41-17.7c-19.9-5.6-34.4-11.7-43.5-18.3
		c-13-9.3-19.5-21.5-19.5-36.7c0-14.7,6-26.6,18.1-35.8c12.1-9.2,27.5-13.8,46.3-13.8c12.7,0,24.1,2.5,34.2,7.4
		c10.1,4.9,17.9,11.8,23.4,20.6c5.5,8.8,8.3,18.6,8.3,29.4h-16.3c0-13.1-4.5-23.7-13.4-31.7c-9-8-21-12-36.1-12
		c-14.7,0-26.4,3.3-35.1,9.8c-8.7,6.6-13.1,15.1-13.1,25.7c0,9.8,3.9,17.7,11.7,23.9c7.8,6.2,20.3,11.6,37.6,16.3
		c17.2,4.7,30.3,9.6,39.2,14.6c8.9,5.1,15.6,11.1,20,18.1c4.5,7,6.7,15.3,6.7,24.9c0,15.1-6,27.2-18.1,36.4
		c-12.1,9.1-28,13.7-47.8,13.7c-13.5,0-26-2.4-37.2-7.3c-11.3-4.8-19.9-11.6-25.7-20.3c-5.8-8.7-8.8-18.7-8.8-29.9h16.2
		c0,13.5,5.1,24.2,15.2,32c10.1,7.8,23.6,11.7,40.3,11.7c14.9,0,26.9-3.3,36-9.9C827.9,568.4,832.5,559.7,832.5,548.8z"/>
</g>
<g class="st2">
	<path class="st0" d="M546.3,226.2h-89.5V316h-16.2V124h118.9v13.7H456.8v74.8h89.5V226.2z"/>
</g>
<g class="st2">
	<path class="st0" d="M432.2,876V684h53.7c15.7,0,29.8,3.6,42.3,10.7c12.5,7.2,22.2,17.4,29.2,30.8c7,13.4,10.5,28.6,10.5,45.6v17.7
		c0,17.1-3.5,32.3-10.4,45.6c-6.9,13.3-16.7,23.5-29.3,30.7c-12.6,7.2-27.1,10.8-43.4,10.8H432.2z M448.4,697.7v164.5h36.4
		c20.2,0,36.4-6.7,48.6-20.1c12.2-13.4,18.3-31.6,18.3-54.4v-16.9c0-22.1-6-39.8-18.1-53c-12-13.3-27.9-20-47.6-20.1H448.4z"/>
</g>
</svg>
