<?xml version="1.0" encoding="UTF-8" standalone="no"?>
<!-- Created with Inkscape (http://www.inkscape.org/) -->

<svg
   width="48"
   height="48"
   viewBox="0 0 48 48"
   version="1.1"
   id="svg5"
   inkscape:version="1.1.1 (3bf5ae0d25, 2021-09-20)"
   sodipodi:docname="logo-hover.svg"
   xmlns:inkscape="http://www.inkscape.org/namespaces/inkscape"
   xmlns:sodipodi="http://sodipodi.sourceforge.net/DTD/sodipodi-0.dtd"
   xmlns="http://www.w3.org/2000/svg"
   xmlns:svg="http://www.w3.org/2000/svg">
  <sodipodi:namedview
     id="namedview7"
     pagecolor="#ffffff"
     bordercolor="#666666"
     borderopacity="1.0"
     inkscape:pageshadow="2"
     inkscape:pageopacity="0.0"
     inkscape:pagecheckerboard="0"
     inkscape:document-units="px"
     showgrid="false"
     showguides="false"
     inkscape:zoom="8"
     inkscape:cx="29.4375"
     inkscape:cy="35.9375"
     inkscape:window-width="1920"
     inkscape:window-height="1001"
     inkscape:window-x="-9"
     inkscape:window-y="-9"
     inkscape:window-maximized="1"
     inkscape:current-layer="layer1" />
  <defs
     id="defs2" />
  <g
     inkscape:label="Слой 1"
     inkscape:groupmode="layer"
     id="layer1">
    <path
       style="fill:#000000;stroke-width:0.0969562"
       d="M 21.769798,47.939892 C 17.083536,47.453187 12.861512,45.751423 9.0673455,42.819938 8.6140335,42.469696 7.6748757,41.613731 6.9803281,40.917796 3.3096848,37.239815 0.9754764,32.57649 0.1841022,27.340175 c -0.2454696,-1.624213 -0.2454696,-5.065137 0,-6.68935 C 1.2300209,13.730254 4.9936899,7.8060641 10.811455,3.9228854 11.995432,3.1326161 13.944062,2.128847 15.411471,1.5533473 c 1.36621,-0.5358119 3.61688,-1.12357924 5.243227,-1.36927888 1.624517,-0.24542456 5.066087,-0.24542456 6.690604,0 5.269788,0.79613374 9.90958,3.12592518 13.626833,6.84247998 3.713693,3.7130006 6.048245,8.3605206 6.843763,13.6242766 0.24547,1.624213 0.24547,5.065137 0,6.68935 -0.794732,5.258571 -3.133731,9.914937 -6.843763,13.624277 -3.705601,3.704905 -8.409244,6.070809 -13.57835,6.829828 -1.293333,0.18991 -4.418405,0.270821 -5.623987,0.145612 z m 4.169508,-4.65389 c 7.267545,-0.753913 13.472223,-5.492997 16.139391,-12.327133 0.242915,-0.622442 0.441675,-1.211554 0.441675,-1.309135 0,-0.269913 -10.026292,-10.258093 -10.193512,-10.154765 -0.07237,0.04472 -2.851497,2.297957 -6.175841,5.007198 -3.324345,2.709241 -6.222434,5.016772 -6.440197,5.127845 -0.320749,0.163604 -0.529946,0.195186 -1.101674,0.166322 -0.595603,-0.03007 -0.770649,-0.08124 -1.121659,-0.327897 -0.576596,-0.40517 -0.975945,-1.081879 -1.031136,-1.747294 -0.0651,-0.78485 0.173093,-1.331205 0.864492,-1.982944 l 0.568147,-0.535557 -1.398323,-1.395568 -1.398324,-1.395568 -1.243887,1.010128 c -0.684138,0.555571 -2.819502,2.29103 -4.7452535,3.856575 l -3.5013659,2.846449 0.2824125,0.740594 c 0.7415533,1.944637 1.9176786,3.938859 3.2955864,5.587952 4.0840425,4.887818 10.4580505,7.486487 16.7594685,6.832798 z M 9.2843305,21.129045 c 2.5205385,-2.056437 4.7573345,-3.830714 4.9706585,-3.942836 0.542437,-0.2851 1.405493,-0.277724 1.987788,0.01699 0.282053,0.142752 1.296431,1.076189 2.868712,2.639802 l 2.43237,2.418959 4.888509,-3.990202 c 2.688681,-2.19461 5.04123,-4.057696 5.227888,-4.140191 0.538794,-0.238126 1.20194,-0.266545 1.722885,-0.07384 0.391961,0.144997 1.156313,0.8639 5.244403,4.932567 l 4.785571,4.762832 -0.06382,-0.920997 C 43.123284,19.568477 42.123368,16.434423 40.460116,13.776522 35.693217,6.1589851 26.456383,2.8006868 17.939638,5.5886011 10.71865,7.9523555 5.4949513,14.45266 4.7058504,22.056558 c -0.099644,0.960206 -0.1336518,2.811466 -0.051642,2.811466 0.026013,0 2.1095529,-1.682541 4.6300921,-3.738979 z"
       id="path218" />
  </g>
</svg>
