<?xml version="1.0" encoding="UTF-8" standalone="no"?>
<!-- Created with Inkscape (http://www.inkscape.org/) -->

<svg
   width="48"
   height="48"
   viewBox="0 0 48 48"
   version="1.1"
   id="svg5"
   inkscape:version="1.1.2 (b8e25be833, 2022-02-05)"
   sodipodi:docname="logo.svg"
   xmlns:inkscape="http://www.inkscape.org/namespaces/inkscape"
   xmlns:sodipodi="http://sodipodi.sourceforge.net/DTD/sodipodi-0.dtd"
   xmlns="http://www.w3.org/2000/svg"
   xmlns:svg="http://www.w3.org/2000/svg">
  <sodipodi:namedview
     id="namedview7"
     pagecolor="#ffffff"
     bordercolor="#666666"
     borderopacity="1.0"
     inkscape:pageshadow="2"
     inkscape:pageopacity="0.0"
     inkscape:pagecheckerboard="0"
     inkscape:document-units="px"
     showgrid="false"
     inkscape:zoom="8.65625"
     inkscape:cx="25.126354"
     inkscape:cy="19.523466"
     inkscape:window-width="1920"
     inkscape:window-height="1017"
     inkscape:window-x="-8"
     inkscape:window-y="-8"
     inkscape:window-maximized="1"
     inkscape:current-layer="layer1" />
  <defs
     id="defs2" />
  <g
     inkscape:label="Слой 1"
     inkscape:groupmode="layer"
     id="layer1">
    <path
       style="fill:#000000;stroke-width:0.09375"
       d="M 0.1875,47.8125 C 9.92e-4,47.625992 0,47.5 0,24 0,0.5 9.92e-4,0.374008 0.1875,0.1875 0.374008,9.92e-4 0.5,0 24,0 47.5,0 47.625992,9.92e-4 47.8125,0.1875 47.999008,0.374008 48,0.5 48,24 48,47.5 47.999006,47.625992 47.8125,47.8125 47.625992,47.999008 47.5,48 24,48 0.5,48 0.374008,47.999008 0.1875,47.8125 Z m 15.375,-8.25 V 32.34375 H 8.3906254 1.21875 v 7.21875 7.21875 H 8.3906254 15.5625 Z m 15.65625,0 V 32.34375 H 24 16.78125 v 7.21875 7.21875 H 24 31.21875 Z m -8.720915,4.661642 c -1.932147,-0.658805 -3.091585,-2.273039 -3.091585,-4.304276 0,-1.797128 0.94722,-3.31633 2.557131,-4.101263 2.725943,-1.32907 5.997087,0.418077 6.467018,3.454091 0.329176,2.12666 -1.00603,4.273185 -3.091504,4.970012 -0.813717,0.271891 -2.01218,0.264059 -2.84106,-0.01856 z m 2.172238,-1.039189 c 0.997938,-0.234888 1.810499,-0.885314 2.300166,-1.841203 0.234961,-0.458673 0.264136,-0.613998 0.264136,-1.40625 0,-0.769301 -0.0341,-0.963375 -0.250329,-1.424672 -0.319335,-0.681261 -0.971863,-1.333789 -1.653124,-1.653124 -0.461592,-0.216366 -0.65488,-0.250276 -1.424672,-0.249936 -0.781999,3.75e-4 -0.954959,0.03195 -1.418099,0.259138 -0.99867,0.489885 -1.788184,1.600923 -1.917103,2.697832 -0.182335,1.551378 0.952957,3.190503 2.491452,3.597139 0.652476,0.172454 0.947974,0.176328 1.607573,0.02108 z M 46.78125,39.5625 V 32.34375 H 39.609375 32.4375 v 7.21875 7.21875 h 7.171875 7.171875 z m -11.4375,4.59375 c -0.410636,-0.410636 -0.306936,-0.572168 1.592694,-2.480905 l 1.780196,-1.788729 -1.736326,-1.73237 c -0.954979,-0.952804 -1.760717,-1.8276 -1.79053,-1.943992 -0.08574,-0.334757 0.194956,-0.679004 0.553663,-0.679004 0.266364,0 0.507087,0.20525 2.059177,1.755727 l 1.757553,1.755727 1.764587,-1.755727 c 1.51283,-1.505235 1.805183,-1.755727 2.049131,-1.755727 0.156601,0 0.354309,0.07709 0.4397,0.171444 0.346193,0.38254 0.23422,0.548299 -1.625027,2.405614 l -1.780182,1.778333 1.780182,1.788717 c 1.552115,1.559556 1.780182,1.826368 1.780182,2.082613 0,0.318987 -0.273871,0.585779 -0.601323,0.585779 -0.114438,0 -0.873057,-0.68517 -1.995899,-1.802653 L 39.560233,40.738443 37.7558,42.541097 c -1.891675,1.889809 -2.038846,1.988357 -2.41205,1.615153 z M 15.5625,24 V 16.78125 H 8.3906254 1.21875 V 24 31.21875 H 8.3906254 15.5625 Z m 15.65625,0 V 16.78125 H 24 16.78125 V 24 31.21875 H 24 31.21875 Z m -11.476872,4.22704 c -0.329945,-0.364585 -0.175747,-0.589588 1.676041,-2.445647 L 23.195212,24 21.417919,22.218607 c -1.240039,-1.2429 -1.786503,-1.854705 -1.807759,-2.023916 -0.04055,-0.322821 0.225056,-0.600941 0.573907,-0.600941 0.237698,0 0.544381,0.262057 2.029727,1.734375 0.962347,0.953906 1.793305,1.734375 1.846573,1.734375 0.05327,0 0.861951,-0.780469 1.797071,-1.734375 1.423816,-1.45242 1.743973,-1.734375 1.96936,-1.734375 0.333042,0 0.579452,0.257957 0.579452,0.606606 0,0.216664 -0.312675,0.579158 -1.752458,2.03168 L 24.901335,24 l 1.752458,1.767964 c 1.488319,1.501488 1.752457,1.810167 1.752457,2.047969 0,0.33928 -0.253344,0.590317 -0.595741,0.590317 -0.204256,0 -0.579625,-0.333338 -1.953071,-1.734375 -0.93512,-0.953906 -1.743802,-1.734375 -1.797071,-1.734375 -0.05327,0 -0.884226,0.780469 -1.846573,1.734375 -1.485346,1.472318 -1.792029,1.734375 -2.029727,1.734375 -0.156628,0 -0.351469,-0.07897 -0.442189,-0.17921 z M 46.78125,24 V 16.78125 H 39.609375 32.4375 V 24 31.21875 h 7.171875 7.171875 z M 15.5625,8.3906249 V 1.21875 H 8.3906254 1.21875 V 8.3906249 15.5625 H 8.3906254 15.5625 Z M 4.186405,12.297306 C 3.840213,11.914766 3.952186,11.749007 5.811433,9.891692 L 7.591615,8.1133589 5.811433,6.324642 C 4.259317,4.765086 4.03125,4.498274 4.03125,4.242029 c 0,-0.318987 0.273872,-0.585779 0.601323,-0.585779 0.114438,0 0.873058,0.68517 1.995899,1.802653 L 8.4397674,7.2615569 10.2442,5.458903 c 1.891675,-1.889808 2.038846,-1.988357 2.41205,-1.615153 0.410636,0.410636 0.306936,0.572168 -1.592694,2.480905 L 9.2833614,8.1133839 11.019686,9.845754 c 0.954979,0.952804 1.760717,1.8276 1.79053,1.943992 0.08574,0.334757 -0.194956,0.679004 -0.553663,0.679004 -0.266364,0 -0.507087,-0.20525 -2.059177,-1.755727 L 8.4398234,8.9572962 6.675237,10.713023 c -1.512831,1.505235 -1.805184,1.755727 -2.049132,1.755727 -0.1566,0 -0.354309,-0.07709 -0.4397,-0.171444 z M 31.21875,8.3906249 V 1.21875 H 24 16.78125 V 8.3906249 15.5625 H 24 31.21875 Z M 22.853687,12.510471 C 21.742081,12.241007 20.693651,11.483563 20.055277,10.488744 18.843203,8.5998907 19.348331,5.847914 21.157103,4.485902 22.09959,3.776206 22.624325,3.612389 23.960338,3.610757 l 1.132213,-0.0014 0.80221,0.397583 c 1.805725,0.894934 2.832721,2.8010271 2.537349,4.7092924 -0.415867,2.6867286 -2.972794,4.4258486 -5.578423,3.7942216 z m 2.477235,-1.37211 c 0.680061,-0.316309 1.333209,-0.968693 1.653124,-1.6511892 0.216432,-0.4617312 0.25025,-0.6546471 0.24975,-1.4246719 C 27.233233,7.246302 27.208536,7.1245814 26.937857,6.605942 25.469958,3.793328 21.445958,4.244371 20.664632,7.3090961 c -0.42395,1.6629224 0.583704,3.4607719 2.24076,3.9979519 0.638986,0.207145 1.789526,0.127129 2.42553,-0.168687 z M 46.78125,8.3906249 V 1.21875 H 39.609375 32.4375 V 8.3906249 15.5625 h 7.171875 7.171875 z"
       id="path39" />
  </g>
</svg>
