<?xml version="1.0" encoding="UTF-8" standalone="no"?>
<!-- Created with Inkscape (http://www.inkscape.org/) -->

<svg
   width="48"
   height="48"
   viewBox="0 0 48 48"
   version="1.1"
   id="svg5"
   inkscape:version="1.1.1 (3bf5ae0d25, 2021-09-20)"
   sodipodi:docname="logo.svg"
   xmlns:inkscape="http://www.inkscape.org/namespaces/inkscape"
   xmlns:sodipodi="http://sodipodi.sourceforge.net/DTD/sodipodi-0.dtd"
   xmlns="http://www.w3.org/2000/svg"
   xmlns:svg="http://www.w3.org/2000/svg">
  <sodipodi:namedview
     id="namedview7"
     pagecolor="#ffffff"
     bordercolor="#666666"
     borderopacity="1.0"
     inkscape:pageshadow="2"
     inkscape:pageopacity="0.0"
     inkscape:pagecheckerboard="0"
     inkscape:document-units="px"
     showgrid="false"
     showguides="false"
     inkscape:zoom="8.4583333"
     inkscape:cx="27.605911"
     inkscape:cy="8.6896552"
     inkscape:window-width="1920"
     inkscape:window-height="1001"
     inkscape:window-x="-9"
     inkscape:window-y="-9"
     inkscape:window-maximized="1"
     inkscape:current-layer="layer1" />
  <defs
     id="defs2" />
  <g
     inkscape:label="Слой 1"
     inkscape:groupmode="layer"
     id="layer1">
    <path
       style="fill:#000000;stroke-width:0.0969562"
       d="M 21.769798,47.939892 C 17.07626,47.452432 12.867404,45.755975 9.0673465,42.819938 8.6140341,42.469696 7.6748753,41.613731 6.9803277,40.917796 3.3096856,37.239815 0.97547618,32.576491 0.18410294,27.340175 c -0.24547059,-1.624213 -0.24547059,-5.065137 0,-6.68935 C 0.98005605,15.384209 3.320465,10.723778 7.0257044,7.0272187 10.754779,3.3068802 15.390262,0.97939268 20.654698,0.18406765 c 1.624517,-0.24542353 5.066087,-0.24542353 6.690604,0 5.289372,0.79909227 9.89384,3.11148395 13.626161,6.84313975 3.715846,3.7151826 6.048744,8.3587406 6.844434,13.6236176 0.245471,1.624213 0.245471,5.065137 0,6.68935 -0.795619,5.264407 -3.132407,9.915951 -6.843764,13.623 -3.719855,3.715537 -8.401869,6.071002 -13.578348,6.831105 -1.293333,0.18991 -4.418405,0.270821 -5.623987,0.145612 z m 4.169508,-4.65389 c 5.994774,-0.62188 11.372054,-3.993095 14.563164,-9.130183 1.062577,-1.710551 2.024814,-4.071972 2.456059,-6.027408 L 43.12678,27.365493 38.145,22.38386 c -3.568937,-3.568831 -5.074361,-5.012194 -5.308223,-5.089394 -0.465262,-0.153585 -1.029322,-0.0494 -1.446804,0.267241 -0.197995,0.150169 -2.847149,2.298378 -5.887011,4.773799 -3.039861,2.475421 -5.679741,4.565903 -5.8664,4.645516 -0.435507,0.185752 -1.309798,0.185772 -1.745375,3.8e-5 -0.85801,-0.365858 -1.451761,-1.250936 -1.453532,-2.166712 -0.0013,-0.684753 0.370931,-1.396566 0.97305,-1.860629 0.259722,-0.200174 0.474081,-0.389763 0.476351,-0.421309 0.0023,-0.03155 -0.469225,-0.518878 -1.047772,-1.082958 -1.177776,-1.148322 -1.534039,-1.329325 -2.241559,-1.138846 -0.284058,0.07647 -1.556928,1.055978 -4.8725062,3.749511 -2.4683999,2.005296 -4.5454169,3.698968 -4.6155919,3.763714 -0.1052903,0.09714 -0.1002543,0.226141 0.028826,0.738029 0.7153276,2.836751 2.1131699,5.60011 3.9427853,7.794396 4.1391498,4.964144 10.5203008,7.587206 16.8580638,6.929746 z"
       id="path21" />
  </g>
</svg>
